:SAMPLES-PER-SECOND 30
:FULLY-SPECIFIED
:DEGREES
1958
root  3.99928 40.8896 -3.16243 -40.8505 -87.8224 37.2213
RightUpLeg  0.890064 -12.1388 -5.2902
RightLeg  9.13254 -12.295 2.54588
RightFoot  -3.58816 0.144559 -2.49387
RightToes  -4.65663e-010 0 -3.6325e-017
Spine  8.33366 -2.29276 1.92124
Spine1  5.51773 -3.4552 4.91157
HEad  -5.19591 2.99081 -3.23015
LeftShoulder1  6.71733 -9.66855 -44.3923
LeftArm  -11.4033 28.4499 -27.6772
LeftForeArm  30.6428 -31.6287 -5.2156
LeftHand  -0.244104 0.0205437 5.32207
RightShoulder  5.36767 8.52748 38.5491
RightArm  -7.37799 -17.2389 27.3005
RightForeArm  2.93415 33.125 7.18978
RightHand  -1.29207 2.57116 -18.9027
LeftUpLeg  4.4961 5.76986 5.38689
LeftLeg  1.98033 7.09502 -3.0386
LeftFoot  -1.1383 0.148423 -1.57663
LeftToes  4.18335e-011 1.59304e-011 3.38507e-012
1959
root  3.94295 40.9777 -3.00165 -29.0074 -87.1597 25.6721
RightUpLeg  1.59591 -10.4806 -5.49849
RightLeg  7.33625 -14.6227 3.16271
RightFoot  -2.75225 0.129779 -1.97743
RightToes  -4.65663e-010 0 -3.6325e-017
Spine  6.44263 -1.89691 1.60426
Spine1  6.70815 -2.82051 3.67377
HEad  -4.56814 2.39065 -1.5905
LeftShoulder1  6.846 -9.90695 -44.4426
LeftArm  -9.7532 26.5064 -26.6428
LeftForeArm  33.0512 -34.763 -5.8514
LeftHand  -0.244104 0.0205437 5.32207
RightShoulder  5.41602 8.5372 38.8967
RightArm  -7.87576 -18.4979 29.0842
RightForeArm  2.10199 29.314 6.25555
RightHand  -1.48002 3.47634 -19.4697
LeftUpLeg  4.7646 5.9198 5.46907
LeftLeg  0.690696 5.77265 -3.60097
LeftFoot  0.17079 0.179766 -1.80199
LeftToes  4.18335e-011 1.59304e-011 3.38507e-012
1960
root  3.86037 41.0386 -2.74541 -26.4075 -87.1513 24.0755
RightUpLeg  1.46427 -9.39134 -5.60973
RightLeg  5.57418 -15.6477 3.66362
RightFoot  -2.03853 0.0953344 -1.34046
RightToes  -4.65663e-010 0 -3.6325e-017
Spine  4.27055 -1.30156 3.74615
Spine1  6.63137 -1.29768 0.140675
HEad  -2.7223 1.38004 -0.446281
LeftShoulder1  6.72451 -9.85924 -43.7753
LeftArm  -8.89462 25.774 -26.3139
LeftForeArm  35.0855 -38.2614 -6.67079
LeftHand  -0.244104 0.0205437 5.32207
RightShoulder  5.36493 8.53242 38.5084
RightArm  -5.94617 -20.7425 31.3481
RightForeArm  -1.0576 24.9994 5.42288
RightHand  -1.43297 3.4383 -18.919
LeftUpLeg  4.51908 5.73687 5.09118
LeftLeg  -0.718909 6.04711 -3.96209
LeftFoot  0.637521 0.123138 -1.2074
LeftToes  4.18335e-011 1.59304e-011 3.38507e-012
1961
root  3.82772 41.0713 -2.45208 -26.9612 -87.6384 25.5582
RightUpLeg  1.18302 -9.00718 -5.60918
RightLeg  4.00679 -15.5257 3.8905
RightFoot  -1.42436 0.0626165 -0.832139
RightToes  -4.65663e-010 0 -3.6325e-017
Spine  3.11153 -0.49307 6.44682
Spine1  5.90574 0.419578 -3.58971
HEad  -1.58812 0.419451 -0.0839633
LeftShoulder1  6.51269 -9.57048 -43.309
LeftArm  -9.41958 25.788 -26.4296
LeftForeArm  36.5358 -42.6877 -7.89986
LeftHand  -0.244104 0.0205437 5.32207
RightShoulder  5.41755 8.7227 38.255
RightArm  -1.68439 -22.5991 32.4792
RightForeArm  -2.9187 21.5935 5.07157
RightHand  -1.14775 2.42086 -17.1459
LeftUpLeg  4.06856 5.45996 4.62854
LeftLeg  -1.59286 7.17456 -4.0825
LeftFoot  0.464404 0.0762888 -0.765538
LeftToes  4.18335e-011 1.59304e-011 3.38507e-012
1962
root  3.8623 41.0933 -2.18803 -29.4264 -88.2093 28.4816
RightUpLeg  1.16516 -8.68151 -5.55206
RightLeg  2.66408 -15.2992 3.92271
RightFoot  -0.792371 0.0375572 -0.464977
RightToes  -4.65663e-010 0 -3.6325e-017
Spine  2.83365 0.304813 8.30537
Spine1  5.87131 1.81946 -6.06493
HEad  -2.54127 -0.210264 -0.45522
LeftShoulder1  6.47714 -9.37268 -43.7534
LeftArm  -10.707 25.4268 -26.5111
LeftForeArm  36.2447 -46.2716 -9.10786
LeftHand  -0.244104 0.0205437 5.32207
RightShoulder  5.65101 9.09335 38.7799
RightArm  1.98487 -23.1773 31.9954
RightForeArm  0.437776 19.5927 5.29027
RightHand  -0.924212 1.5467 -15.5905
LeftUpLeg  3.63653 5.35606 4.33435
LeftLeg  -1.68998 7.90981 -4.1541
LeftFoot  0.437632 0.0586665 -0.595063
LeftToes  4.18335e-011 1.59304e-011 3.38507e-012
